<svg xmlns="http://www.w3.org/2000/svg" width="85" height="85" viewBox="0 0 85 85" fill="none">
  <g clip-path="url(#clip0_2749_243)">
    <g filter="url(#filter0_f_2749_243)">
      <path d="M26.4543 67.0357L27.5385 67.6768C32.0923 70.3742 37.3136 71.8011 42.6382 71.8035H42.6494C59.0012 71.8035 72.3089 58.5242 72.3157 42.2027C72.3186 34.2935 69.2357 26.8559 63.6345 21.2612C60.8873 18.502 57.6191 16.314 54.019 14.824C50.4189 13.334 46.5584 12.5715 42.661 12.5807C26.2966 12.5807 12.9885 25.8585 12.9826 42.179C12.9746 47.752 14.547 53.2135 17.518 57.932L18.2238 59.0515L15.2263 69.9738L26.4543 67.0357ZM6.65625 78.4354L11.7204 59.9811C8.5972 54.5805 6.95411 48.4536 6.95605 42.1766C6.9643 22.5399 22.9751 6.56464 42.6499 6.56464C52.1974 6.56948 61.159 10.2779 67.8987 17.0095C74.6384 23.7412 78.3466 32.6889 78.3432 42.2052C78.3345 61.8404 62.3213 77.8186 42.6494 77.8186H42.6339C36.6606 77.8161 30.7912 76.3205 25.5777 73.4832L6.65625 78.4354Z" fill="#B3B3B3"/>
    </g>
    <path d="M6.29004 78.0693L11.3542 59.615C8.22561 54.2014 6.58228 48.0602 6.58984 41.8105C6.59809 22.1738 22.6088 6.19855 42.2837 6.19855C51.8312 6.20339 60.7928 9.91178 67.5325 16.6434C74.2722 23.3751 77.9804 32.3229 77.977 41.8391C77.9683 61.4743 61.9551 77.4525 42.2832 77.4525H42.2677C36.2944 77.4501 30.425 75.9544 25.2115 73.1171L6.29004 78.0693Z" fill="white"/>
    <path d="M42.2946 12.2146C25.9302 12.2146 12.6221 25.4924 12.6162 41.8129C12.6082 47.3859 14.1806 52.8474 17.1516 57.5659L17.8574 58.6859L14.8599 69.6082L26.0884 66.6696L27.1726 67.3107C31.7264 70.0081 36.9477 71.4345 42.2723 71.4374H42.2835C58.6353 71.4374 71.9434 58.1581 71.9497 41.8366C71.9621 37.9465 71.2012 34.0925 69.7111 30.4979C68.2209 26.9032 66.0312 23.6393 63.2686 20.8951C60.5214 18.1358 57.253 15.9479 53.6528 14.4578C50.0526 12.9678 46.1921 12.2054 42.2946 12.2146Z" fill="url(#paint0_linear_2749_243)"/>
    <path fill-rule="evenodd" clip-rule="evenodd" d="M33.3627 26.9222C32.6942 25.4401 31.9908 25.4101 31.3558 25.3845L29.6462 25.3636C29.0515 25.3636 28.0851 25.5864 27.2682 26.4773C26.4513 27.3682 24.1465 29.5214 24.1465 33.9008C24.1465 38.2803 27.3424 42.5121 27.7878 43.1067C28.2331 43.7013 33.9575 52.9749 43.0228 56.5429C50.5562 59.508 52.0891 58.9183 53.7249 58.7701C55.3608 58.622 59.0015 56.617 59.7443 54.5383C60.487 52.4597 60.4875 50.6789 60.2648 50.3065C60.0421 49.9342 59.4474 49.7129 58.5548 49.2675C57.6621 48.822 53.2782 46.6688 52.4607 46.3716C51.6433 46.0743 51.049 45.9266 50.4538 46.8175C49.8586 47.7084 48.1515 49.7124 47.6309 50.3065C47.1104 50.9006 46.5908 50.9752 45.6982 50.5302C44.8056 50.0853 41.9337 49.145 38.5263 46.1125C35.8751 43.7531 34.0855 40.8392 33.5645 39.9488C33.0435 39.0584 33.5092 38.5761 33.9565 38.1326C34.3567 37.7337 34.8481 37.0931 35.2949 36.5735C35.7417 36.054 35.8887 35.6826 36.1856 35.0895C36.4825 34.4964 36.3345 33.9754 36.1114 33.5304C35.8882 33.0855 34.1554 28.6828 33.3627 26.9222Z" fill="white"/>
  </g>
  <defs>
    <filter id="filter0_f_2749_243" x="-0.40575" y="-0.497364" width="85.8105" height="85.9948" filterUnits="userSpaceOnUse" color-interpolation-filters="sRGB">
      <feFlood flood-opacity="0" result="BackgroundImageFix"/>
      <feBlend mode="normal" in="SourceGraphic" in2="BackgroundImageFix" result="shape"/>
      <feGaussianBlur stdDeviation="3.531" result="effect1_foregroundBlur_2749_243"/>
    </filter>
    <linearGradient id="paint0_linear_2749_243" x1="41.679" y1="15.7685" x2="41.9786" y2="66.3781" gradientUnits="userSpaceOnUse">
      <stop stop-color="#57D163"/>
      <stop offset="1" stop-color="#23B33A"/>
    </linearGradient>
    <clipPath id="clip0_2749_243">
      <rect width="85" height="85" fill="white"/>
    </clipPath>
  </defs>
</svg>